<svg width="48" height="65" viewBox="0 0 48 65" fill="none" xmlns="http://www.w3.org/2000/svg">
<rect width="27.8686" height="11.1443" rx="5.57213" transform="matrix(0.676888 0.737765 -0.742094 0.66844 12.373 18.8024)" fill="black"/>
<path d="M27.0962 35.6017C29.2852 37.9171 29.1715 41.5473 26.8422 43.7101L17.304 52.5661C13.9764 55.6558 8.74378 55.4789 5.61655 52.1712C4.36566 50.8481 4.43063 48.7737 5.76167 47.5379L18.9149 35.3252C21.2442 33.1625 24.9071 33.2863 27.0962 35.6017Z" fill="black"/>
<path d="M26.3679 10.2124C29.5341 13.5621 29.369 18.8135 25.9992 21.9416L16.3873 30.8641C14.0284 33.0538 10.3194 32.928 8.10306 30.5832C5.8867 28.2384 6.00225 24.5625 8.36115 22.3728L21.634 10.0519C22.9819 8.80063 25.1014 8.87247 26.3679 10.2124Z" fill="black"/>
<rect width="23.9737" height="9.36136" transform="matrix(0.707883 0.70633 -0.707883 0.70633 16.2605 22.2368)" fill="black"/>
<rect width="27.8693" height="11.1444" rx="5.57222" transform="matrix(-0.676899 0.737747 0.742112 0.668428 35.6267 18.8024)" fill="black"/>
<path d="M20.9028 35.6017C18.7136 37.9171 18.8273 41.5473 21.1568 43.7101L30.6953 52.5661C34.023 55.6557 39.2559 55.479 42.3833 52.1712C43.6342 50.8481 43.5692 48.7737 42.2381 47.5378L29.0844 35.3253C26.755 33.1625 23.0919 33.2863 20.9028 35.6017Z" fill="black"/>
<path d="M21.6312 10.2124C18.4648 13.5621 18.6299 18.8135 21.9999 21.9417L31.6121 30.864C33.9711 33.0538 37.6803 32.928 39.8967 30.5832C42.1132 28.2384 41.9976 24.5625 39.6386 22.3727L26.3652 10.0519C25.0172 8.80064 22.8977 8.87247 21.6312 10.2124Z" fill="black"/>
<rect width="23.9742" height="9.36156" transform="matrix(-0.707897 0.706315 0.707897 0.706315 31.7388 22.2368)" fill="black"/>
</svg>
